<svg width="20" height="20" viewBox="0 0 20 20" fill="none" xmlns="http://www.w3.org/2000/svg">
<path fill-rule="evenodd" clip-rule="evenodd" d="M10 2.22222C5.70445 2.22222 2.22222 5.70445 2.22222 10C2.22222 14.2955 5.70445 17.7778 10 17.7778C13.9183 17.7778 17.1599 14.8803 17.699 11.1111H11.1111C10.4975 11.1111 10 10.6137 10 10C10 9.38635 10.4975 8.88889 11.1111 8.88889H18.8889C19.5025 8.88889 20 9.38635 20 10C20 15.5228 15.5228 20 10 20C4.47715 20 0 15.5228 0 10C0 4.47715 4.47715 0 10 0C12.7512 0 15.2447 1.11247 17.0516 2.90949C17.4867 3.34222 17.4886 4.04573 17.0559 4.48083C16.6232 4.91594 15.9196 4.91786 15.4845 4.48514C14.0771 3.08534 12.1404 2.22222 10 2.22222Z" fill="white"/>
</svg>
