<svg width="50" height="50" viewBox="0 0 50 50" fill="none" xmlns="http://www.w3.org/2000/svg">
<circle cx="25" cy="25" r="25" fill="#0C0A09"/>
<path d="M24.125 28.6806L29.375 25.6495C29.875 25.3608 29.875 24.6392 29.375 24.3505L24.125 21.3194C23.625 21.0307 23 21.3916 23 21.9689L23 28.0311C23 28.6084 23.625 28.9693 24.125 28.6806Z" fill="white"/>
<path fill-rule="evenodd" clip-rule="evenodd" d="M25.5 15C22.7199 15 19.7641 15.1894 17.6644 15.3598C15.3669 15.5463 13.5205 17.3243 13.2958 19.6389C13.1457 21.186 13 23.1575 13 25C13 26.8425 13.1457 28.814 13.2958 30.3611C13.5205 32.6757 15.3669 34.4537 17.6644 34.6402C19.7641 34.8106 22.7199 35 25.5 35C28.2801 35 31.2359 34.8106 33.3356 34.6402C35.6331 34.4537 37.4795 32.6757 37.7042 30.3611C37.8543 28.814 38 26.8425 38 25C38 23.1575 37.8543 21.186 37.7042 19.6389C37.4795 17.3243 35.6331 15.5463 33.3356 15.3598C31.2359 15.1894 28.2801 15 25.5 15ZM17.8666 17.8516C19.9379 17.6835 22.8176 17.5 25.5 17.5C28.1824 17.5 31.0621 17.6835 33.1334 17.8516C34.2451 17.9419 35.1101 18.7906 35.2158 19.8804C35.3625 21.3911 35.5 23.2727 35.5 25C35.5 26.7274 35.3625 28.6089 35.2158 30.1196C35.1101 31.2094 34.2451 32.0581 33.1334 32.1484C31.0621 32.3165 28.1824 32.5 25.5 32.5C22.8176 32.5 19.9379 32.3165 17.8666 32.1484C16.7549 32.0581 15.8899 31.2094 15.7842 30.1196C15.6375 28.6089 15.5 26.7274 15.5 25C15.5 23.2726 15.6375 21.3911 15.7842 19.8804C15.8899 18.7906 16.7549 17.9419 17.8666 17.8516Z" fill="white"/>
</svg>
