<svg width="50" height="50" viewBox="0 0 50 50" fill="none" xmlns="http://www.w3.org/2000/svg">
<circle cx="25" cy="25" r="25" fill="#0C0A09"/>
<path fill-rule="evenodd" clip-rule="evenodd" d="M17 25C17 20.5817 20.5817 17 25 17C29.4183 17 33 20.5817 33 25C33 29.0796 29.9463 32.446 26 32.9381V27H28C28.5523 27 29 26.5523 29 26C29 25.4477 28.5523 25 28 25H26V23C26 22.4477 26.4477 22 27 22H27.5C28.0523 22 28.5 21.5523 28.5 21C28.5 20.4477 28.0523 20 27.5 20H27C25.3431 20 24 21.3431 24 23V25H22C21.4477 25 21 25.4477 21 26C21 26.5523 21.4477 27 22 27H24V32.9381C20.0537 32.446 17 29.0796 17 25ZM25 35C30.5228 35 35 30.5228 35 25C35 19.4772 30.5228 15 25 15C19.4772 15 15 19.4772 15 25C15 30.5228 19.4772 35 25 35Z" fill="white"/>
</svg>
