<svg width="50" height="50" viewBox="0 0 50 50" fill="none" xmlns="http://www.w3.org/2000/svg">
<circle cx="25" cy="25" r="25" fill="#0C0A09"/>
<path fill-rule="evenodd" clip-rule="evenodd" d="M20.5556 25C20.5556 22.5454 22.5454 20.5556 25 20.5556C27.4546 20.5556 29.4444 22.5454 29.4444 25C29.4444 27.4546 27.4546 29.4444 25 29.4444C22.5454 29.4444 20.5556 27.4546 20.5556 25ZM25 22.7778C23.7727 22.7778 22.7778 23.7727 22.7778 25C22.7778 26.2273 23.7727 27.2222 25 27.2222C26.2273 27.2222 27.2222 26.2273 27.2222 25C27.2222 23.7727 26.2273 22.7778 25 22.7778Z" fill="white"/>
<path d="M30 21.1111C30.6137 21.1111 31.1111 20.6136 31.1111 20C31.1111 19.3864 30.6137 18.8889 30 18.8889C29.3864 18.8889 28.8889 19.3864 28.8889 20C28.8889 20.6136 29.3864 21.1111 30 21.1111Z" fill="white"/>
<path fill-rule="evenodd" clip-rule="evenodd" d="M15 20.5556C15 17.4873 17.4873 15 20.5556 15H29.4444C32.5127 15 35 17.4873 35 20.5556V29.4444C35 32.5127 32.5127 35 29.4444 35H20.5556C17.4873 35 15 32.5127 15 29.4444V20.5556ZM20.5556 17.2222C18.7146 17.2222 17.2222 18.7146 17.2222 20.5556V29.4444C17.2222 31.2854 18.7146 32.7778 20.5556 32.7778H29.4444C31.2854 32.7778 32.7778 31.2854 32.7778 29.4444V20.5556C32.7778 18.7146 31.2854 17.2222 29.4444 17.2222H20.5556Z" fill="white"/>
</svg>
