<svg width="25" height="20" viewBox="0 0 25 20" fill="none" xmlns="http://www.w3.org/2000/svg">
<path d="M11.125 13.6806L16.375 10.6495C16.875 10.3608 16.875 9.63916 16.375 9.35048L11.125 6.31939C10.625 6.03072 10 6.39156 10 6.96891L10 13.0311C10 13.6084 10.625 13.9693 11.125 13.6806Z" fill="white"/>
<path fill-rule="evenodd" clip-rule="evenodd" d="M12.5 0C9.71992 0 6.76408 0.189438 4.66438 0.359832C2.36689 0.546276 0.520501 2.32428 0.295845 4.63886C0.145677 6.18601 0 8.1575 0 10C0 11.8425 0.145677 13.814 0.295845 15.3611C0.520501 17.6757 2.36689 19.4537 4.66438 19.6402C6.76408 19.8106 9.71992 20 12.5 20C15.2801 20 18.2359 19.8106 20.3356 19.6402C22.6331 19.4537 24.4795 17.6757 24.7042 15.3611C24.8543 13.814 25 11.8425 25 10C25 8.1575 24.8543 6.18601 24.7042 4.63886C24.4795 2.32428 22.6331 0.546276 20.3356 0.359832C18.2359 0.189438 15.2801 0 12.5 0ZM4.86659 2.85164C6.93793 2.68355 9.81758 2.5 12.5 2.5C15.1824 2.5 18.0621 2.68355 20.1334 2.85164C21.2451 2.94185 22.1101 3.79061 22.2158 4.88037C22.3625 6.3911 22.5 8.27265 22.5 10C22.5 11.7274 22.3625 13.6089 22.2158 15.1196C22.1101 16.2094 21.2451 17.0581 20.1334 17.1484C18.0621 17.3165 15.1824 17.5 12.5 17.5C9.81758 17.5 6.93793 17.3165 4.86659 17.1484C3.75495 17.0581 2.88993 16.2094 2.78415 15.1196C2.63752 13.6089 2.5 11.7274 2.5 10C2.5 8.27265 2.63752 6.3911 2.78415 4.88037C2.88993 3.79061 3.75495 2.94185 4.86659 2.85164Z" fill="white"/>
</svg>
