<svg width="20" height="20" viewBox="0 0 20 20" fill="none" xmlns="http://www.w3.org/2000/svg">
<path fill-rule="evenodd" clip-rule="evenodd" d="M5.55556 10C5.55556 7.5454 7.5454 5.55556 10 5.55556C12.4546 5.55556 14.4444 7.5454 14.4444 10C14.4444 12.4546 12.4546 14.4444 10 14.4444C7.5454 14.4444 5.55556 12.4546 5.55556 10ZM10 7.77778C8.7727 7.77778 7.77778 8.7727 7.77778 10C7.77778 11.2273 8.7727 12.2222 10 12.2222C11.2273 12.2222 12.2222 11.2273 12.2222 10C12.2222 8.7727 11.2273 7.77778 10 7.77778Z" fill="white"/>
<path d="M15 6.11111C15.6137 6.11111 16.1111 5.61365 16.1111 5C16.1111 4.38635 15.6137 3.88889 15 3.88889C14.3864 3.88889 13.8889 4.38635 13.8889 5C13.8889 5.61365 14.3864 6.11111 15 6.11111Z" fill="white"/>
<path fill-rule="evenodd" clip-rule="evenodd" d="M0 5.55556C0 2.48731 2.48731 0 5.55556 0H14.4444C17.5127 0 20 2.48731 20 5.55556V14.4444C20 17.5127 17.5127 20 14.4444 20H5.55556C2.48731 20 0 17.5127 0 14.4444V5.55556ZM5.55556 2.22222C3.71461 2.22222 2.22222 3.71461 2.22222 5.55556V14.4444C2.22222 16.2854 3.71461 17.7778 5.55556 17.7778H14.4444C16.2854 17.7778 17.7778 16.2854 17.7778 14.4444V5.55556C17.7778 3.71461 16.2854 2.22222 14.4444 2.22222H5.55556Z" fill="white"/>
</svg>
