<svg width="20" height="20" viewBox="0 0 20 20" fill="none" xmlns="http://www.w3.org/2000/svg">
<path fill-rule="evenodd" clip-rule="evenodd" d="M2 10C2 5.58172 5.58172 2 10 2C14.4183 2 18 5.58172 18 10C18 14.0796 14.9463 17.446 11 17.9381V12H13C13.5523 12 14 11.5523 14 11C14 10.4477 13.5523 10 13 10H11V8C11 7.44772 11.4477 7 12 7H12.5C13.0523 7 13.5 6.55228 13.5 6C13.5 5.44772 13.0523 5 12.5 5H12C10.3431 5 9 6.34315 9 8V10H7C6.44772 10 6 10.4477 6 11C6 11.5523 6.44772 12 7 12H9V17.9381C5.05369 17.446 2 14.0796 2 10ZM10 20C15.5228 20 20 15.5228 20 10C20 4.47715 15.5228 0 10 0C4.47715 0 0 4.47715 0 10C0 15.5228 4.47715 20 10 20Z" fill="white"/>
</svg>
